<?xml version="1.0" ?><svg id="Layer_1" style="enable-background:new 0 0 32 32;" version="1.1" viewBox="0 0 32 32" xml:space="preserve" xmlns="http://www.w3.org/2000/svg" xmlns:xlink="http://www.w3.org/1999/xlink"><style type="text/css">
	.st0{fill:#FBC34E;}
	.st1{opacity:0.05;}
</style><g id="Flash"><g><g><path class="st0" d="M25.51,19.45c-0.34,0.33-0.49,0.8-0.41,1.26l0.81,4.76c0.22,1.29-0.3,2.58-1.36,3.35     c-1.07,0.78-2.45,0.87-3.61,0.26l-4.27-2.24c-0.21-0.11-0.44-0.16-0.67-0.16s-0.46,0.05-0.67,0.16l-4.27,2.24     c-1.149,0.615-2.544,0.518-3.61-0.26c-1.06-0.77-1.58-2.06-1.36-3.35l0.81-4.76c0.08-0.46-0.07-0.93-0.41-1.26l-3.45-3.37     c-0.94-0.92-1.28-2.26-0.87-3.52c0.41-1.25,1.47-2.14,2.77-2.33l4.77-0.69c0.47-0.07,0.87-0.36,1.08-0.78l2.13-4.33     c0.59-1.18,1.77-1.91,3.08-1.91s2.49,0.73,3.07,1.91l2.14,4.33c0.21,0.42,0.61,0.71,1.08,0.78l4.77,0.69     c1.3,0.19,2.36,1.08,2.77,2.33c0.41,1.26,0.07,2.6-0.87,3.52L25.51,19.45z"/></g><g class="st1"><path d="M25.51,19.45c-0.34,0.33-0.49,0.8-0.41,1.26l0.81,4.76c0.22,1.29-0.3,2.58-1.36,3.35c-1.07,0.78-2.45,0.87-3.61,0.26     l-4.27-2.24c-0.21-0.11-0.44-0.16-0.67-0.16V2.52c1.31,0,2.49,0.73,3.07,1.91l2.14,4.33c0.21,0.42,0.61,0.71,1.08,0.78l4.77,0.69     c1.3,0.19,2.36,1.08,2.77,2.33c0.41,1.26,0.07,2.6-0.87,3.52L25.51,19.45z"/></g></g></g></svg>